<?xml version="1.0" encoding="utf-8" ?>
<svg baseProfile="full" height="78mm" version="1.1" viewBox="0,0,200,78" width="200mm" xmlns="http://www.w3.org/2000/svg" xmlns:ev="http://www.w3.org/2001/xml-events" xmlns:xlink="http://www.w3.org/1999/xlink"><defs /><rect fill="#222222" height="78" width="200" x="0" y="0" /><text fill="#FFFFFF" style="font-size:12px; font-family:Arial; font-weight:bold;" x="10" y="20">AutoSleep</text><text dominant-baseline="hanging" fill="#FFFFFF" style="font-size:10.0px; font-family:Arial;" x="10" y="30">2023</text><text dominant-baseline="hanging" fill="#FFFFFF" style="font-size:4.125px; font-family:Arial;" x="175" y="35">25662 times</text><text fill="#FFFFFF" style="font-size:2.5px; font-family:Arial" x="10.0" y="44">Jan</text><text fill="#FFFFFF" style="font-size:2.5px; font-family:Arial" x="25.5" y="44">Feb</text><text fill="#FFFFFF" style="font-size:2.5px; font-family:Arial" x="41.0" y="44">Mar</text><text fill="#FFFFFF" style="font-size:2.5px; font-family:Arial" x="56.5" y="44">Apr</text><text fill="#FFFFFF" style="font-size:2.5px; font-family:Arial" x="72.0" y="44">May</text><text fill="#FFFFFF" style="font-size:2.5px; font-family:Arial" x="87.5" y="44">Jun</text><text fill="#FFFFFF" style="font-size:2.5px; font-family:Arial" x="103.0" y="44">Jul</text><text fill="#FFFFFF" style="font-size:2.5px; font-family:Arial" x="118.5" y="44">Aug</text><text fill="#FFFFFF" style="font-size:2.5px; font-family:Arial" x="134.0" y="44">Sep</text><text fill="#FFFFFF" style="font-size:2.5px; font-family:Arial" x="149.5" y="44">Oct</text><text fill="#FFFFFF" style="font-size:2.5px; font-family:Arial" x="165.0" y="44">Nov</text><text fill="#FFFFFF" style="font-size:2.5px; font-family:Arial" x="180.5" y="44">Dec</text><rect fill="#444444" height="2.6" width="2.6" x="10.0" y="45.5"><title>2022-12-26</title></rect><rect fill="#444444" height="2.6" width="2.6" x="10.0" y="49.0"><title>2022-12-27</title></rect><rect fill="#444444" height="2.6" width="2.6" x="10.0" y="52.5"><title>2022-12-28</title></rect><rect fill="#444444" height="2.6" width="2.6" x="10.0" y="56.0"><title>2022-12-29</title></rect><rect fill="#444444" height="2.6" width="2.6" x="10.0" y="59.5"><title>2022-12-30</title></rect><rect fill="#444444" height="2.6" width="2.6" x="10.0" y="63.0"><title>2022-12-31</title></rect><rect fill="#fffc17" height="2.6" width="2.6" x="10.0" y="66.5"><title>2023-01-01 91.4 times</title></rect><rect fill="#ff930d" height="2.6" width="2.6" x="13.5" y="45.5"><title>2023-01-02 95.2 times</title></rect><rect fill="#ffa70f" height="2.6" width="2.6" x="13.5" y="49.0"><title>2023-01-03 94.5 times</title></rect><rect fill="red" height="2.6" width="2.6" x="13.5" y="52.5"><title>2023-01-04 100 times</title></rect><rect fill="#ffb510" height="2.6" width="2.6" x="13.5" y="56.0"><title>2023-01-05 94 times</title></rect><rect fill="#c1ff1e" height="2.6" width="2.6" x="13.5" y="59.5"><title>2023-01-06 88.9 times</title></rect><rect fill="#ff2100" height="2.6" width="2.6" x="13.5" y="63.0"><title>2023-01-07 96.3 times</title></rect><rect fill="red" height="2.6" width="2.6" x="13.5" y="66.5"><title>2023-01-08 98.4 times</title></rect><rect fill="#ff1d00" height="2.6" width="2.6" x="17.0" y="45.5"><title>2023-01-09 96.8 times</title></rect><rect fill="red" height="2.6" width="2.6" x="17.0" y="49.0"><title>2023-01-10 100 times</title></rect><rect fill="red" height="2.6" width="2.6" x="17.0" y="52.5"><title>2023-01-11 100 times</title></rect><rect fill="red" height="2.6" width="2.6" x="17.0" y="56.0"><title>2023-01-12 100 times</title></rect><rect fill="red" height="2.6" width="2.6" x="17.0" y="59.5"><title>2023-01-13 100 times</title></rect><rect fill="red" height="2.6" width="2.6" x="17.0" y="63.0"><title>2023-01-14 100 times</title></rect><rect fill="red" height="2.6" width="2.6" x="17.0" y="66.5"><title>2023-01-15 100 times</title></rect><rect fill="red" height="2.6" width="2.6" x="20.5" y="45.5"><title>2023-01-16 100 times</title></rect><rect fill="#31ff3f" height="2.6" width="2.6" x="20.5" y="49.0"><title>2023-01-17 82 times</title></rect><rect fill="red" height="2.6" width="2.6" x="20.5" y="52.5"><title>2023-01-18 100 times</title></rect><rect fill="#ff1f00" height="2.6" width="2.6" x="20.5" y="56.0"><title>2023-01-19 96.6 times</title></rect><rect fill="#74ff27" height="2.6" width="2.6" x="20.5" y="59.5"><title>2023-01-20 85.7 times</title></rect><rect fill="#444444" height="2.6" width="2.6" x="20.5" y="63.0"><title>2023-01-21</title></rect><rect fill="#ffe715" height="2.6" width="2.6" x="20.5" y="66.5"><title>2023-01-22 92.2 times</title></rect><rect fill="red" height="2.6" width="2.6" x="24.0" y="45.5"><title>2023-01-23 100 times</title></rect><rect fill="#444444" height="2.6" width="2.6" x="24.0" y="49.0"><title>2023-01-24</title></rect><rect fill="red" height="2.6" width="2.6" x="24.0" y="52.5"><title>2023-01-25 97.8 times</title></rect><rect fill="#daff1b" height="2.6" width="2.6" x="24.0" y="56.0"><title>2023-01-26 89.9 times</title></rect><rect fill="red" height="2.6" width="2.6" x="24.0" y="59.5"><title>2023-01-27 100 times</title></rect><rect fill="red" height="2.6" width="2.6" x="24.0" y="63.0"><title>2023-01-28 100 times</title></rect><rect fill="red" height="2.6" width="2.6" x="24.0" y="66.5"><title>2023-01-29 100 times</title></rect><rect fill="#ffdf14" height="2.6" width="2.6" x="27.5" y="45.5"><title>2023-01-30 92.5 times</title></rect><rect fill="red" height="2.6" width="2.6" x="27.5" y="49.0"><title>2023-01-31 100 times</title></rect><rect fill="red" height="2.6" width="2.6" x="27.5" y="52.5"><title>2023-02-01 98 times</title></rect><rect fill="red" height="2.6" width="2.6" x="27.5" y="56.0"><title>2023-02-02 100 times</title></rect><rect fill="red" height="2.6" width="2.6" x="27.5" y="59.5"><title>2023-02-03 100 times</title></rect><rect fill="#ffd113" height="2.6" width="2.6" x="27.5" y="63.0"><title>2023-02-04 93 times</title></rect><rect fill="#ff2600" height="2.6" width="2.6" x="27.5" y="66.5"><title>2023-02-05 95.8 times</title></rect><rect fill="red" height="2.6" width="2.6" x="31.0" y="45.5"><title>2023-02-06 100 times</title></rect><rect fill="red" height="2.6" width="2.6" x="31.0" y="49.0"><title>2023-02-07 100 times</title></rect><rect fill="#444444" height="2.6" width="2.6" x="31.0" y="52.5"><title>2023-02-08</title></rect><rect fill="#444444" height="2.6" width="2.6" x="31.0" y="56.0"><title>2023-02-09</title></rect><rect fill="#ff1c00" height="2.6" width="2.6" x="31.0" y="59.5"><title>2023-02-10 96.9 times</title></rect><rect fill="#444444" height="2.6" width="2.6" x="31.0" y="63.0"><title>2023-02-11</title></rect><rect fill="red" height="2.6" width="2.6" x="31.0" y="66.5"><title>2023-02-12 100 times</title></rect><rect fill="red" height="2.6" width="2.6" x="34.5" y="45.5"><title>2023-02-13 100 times</title></rect><rect fill="red" height="2.6" width="2.6" x="34.5" y="49.0"><title>2023-02-14 100 times</title></rect><rect fill="#ffea15" height="2.6" width="2.6" x="34.5" y="52.5"><title>2023-02-15 92.1 times</title></rect><rect fill="red" height="2.6" width="2.6" x="34.5" y="56.0"><title>2023-02-16 100 times</title></rect><rect fill="red" height="2.6" width="2.6" x="34.5" y="59.5"><title>2023-02-17 100 times</title></rect><rect fill="red" height="2.6" width="2.6" x="34.5" y="63.0"><title>2023-02-18 100 times</title></rect><rect fill="red" height="2.6" width="2.6" x="34.5" y="66.5"><title>2023-02-19 100 times</title></rect><rect fill="red" height="2.6" width="2.6" x="38.0" y="45.5"><title>2023-02-20 100 times</title></rect><rect fill="#ff2000" height="2.6" width="2.6" x="38.0" y="49.0"><title>2023-02-21 96.4 times</title></rect><rect fill="red" height="2.6" width="2.6" x="38.0" y="52.5"><title>2023-02-22 100 times</title></rect><rect fill="#ff2300" height="2.6" width="2.6" x="38.0" y="56.0"><title>2023-02-23 96.1 times</title></rect><rect fill="red" height="2.6" width="2.6" x="38.0" y="59.5"><title>2023-02-24 98 times</title></rect><rect fill="red" height="2.6" width="2.6" x="38.0" y="63.0"><title>2023-02-25 100 times</title></rect><rect fill="red" height="2.6" width="2.6" x="38.0" y="66.5"><title>2023-02-26 100 times</title></rect><rect fill="red" height="2.6" width="2.6" x="41.5" y="45.5"><title>2023-02-27 100 times</title></rect><rect fill="red" height="2.6" width="2.6" x="41.5" y="49.0"><title>2023-02-28 100 times</title></rect><rect fill="red" height="2.6" width="2.6" x="41.5" y="52.5"><title>2023-03-01 100 times</title></rect><rect fill="red" height="2.6" width="2.6" x="41.5" y="56.0"><title>2023-03-02 100 times</title></rect><rect fill="red" height="2.6" width="2.6" x="41.5" y="59.5"><title>2023-03-03 100 times</title></rect><rect fill="red" height="2.6" width="2.6" x="41.5" y="63.0"><title>2023-03-04 100 times</title></rect><rect fill="red" height="2.6" width="2.6" x="41.5" y="66.5"><title>2023-03-05 100 times</title></rect><rect fill="red" height="2.6" width="2.6" x="45.0" y="45.5"><title>2023-03-06 100 times</title></rect><rect fill="red" height="2.6" width="2.6" x="45.0" y="49.0"><title>2023-03-07 100 times</title></rect><rect fill="red" height="2.6" width="2.6" x="45.0" y="52.5"><title>2023-03-08 100 times</title></rect><rect fill="red" height="2.6" width="2.6" x="45.0" y="56.0"><title>2023-03-09 100 times</title></rect><rect fill="red" height="2.6" width="2.6" x="45.0" y="59.5"><title>2023-03-10 97.8 times</title></rect><rect fill="red" height="2.6" width="2.6" x="45.0" y="63.0"><title>2023-03-11 100 times</title></rect><rect fill="#444444" height="2.6" width="2.6" x="45.0" y="66.5"><title>2023-03-12</title></rect><rect fill="#444444" height="2.6" width="2.6" x="48.5" y="45.5"><title>2023-03-13</title></rect><rect fill="red" height="2.6" width="2.6" x="48.5" y="49.0"><title>2023-03-14 100 times</title></rect><rect fill="red" height="2.6" width="2.6" x="48.5" y="52.5"><title>2023-03-15 100 times</title></rect><rect fill="red" height="2.6" width="2.6" x="48.5" y="56.0"><title>2023-03-16 97.9 times</title></rect><rect fill="red" height="2.6" width="2.6" x="48.5" y="59.5"><title>2023-03-17 100 times</title></rect><rect fill="#ff9e0e" height="2.6" width="2.6" x="48.5" y="63.0"><title>2023-03-18 94.8 times</title></rect><rect fill="#4dd2ff" height="2.6" width="2.6" x="48.5" y="66.5"><title>2023-03-19 71.7 times</title></rect><rect fill="red" height="2.6" width="2.6" x="52.0" y="45.5"><title>2023-03-20 100 times</title></rect><rect fill="red" height="2.6" width="2.6" x="52.0" y="49.0"><title>2023-03-21 100 times</title></rect><rect fill="#444444" height="2.6" width="2.6" x="52.0" y="52.5"><title>2023-03-22</title></rect><rect fill="red" height="2.6" width="2.6" x="52.0" y="56.0"><title>2023-03-23 97.8 times</title></rect><rect fill="#ffe415" height="2.6" width="2.6" x="52.0" y="59.5"><title>2023-03-24 92.3 times</title></rect><rect fill="red" height="2.6" width="2.6" x="52.0" y="63.0"><title>2023-03-25 100 times</title></rect><rect fill="#ff1600" height="2.6" width="2.6" x="52.0" y="66.5"><title>2023-03-26 97.6 times</title></rect><rect fill="red" height="2.6" width="2.6" x="55.5" y="45.5"><title>2023-03-27 100 times</title></rect><rect fill="#444444" height="2.6" width="2.6" x="55.5" y="49.0"><title>2023-03-28</title></rect><rect fill="red" height="2.6" width="2.6" x="55.5" y="52.5"><title>2023-03-29 100 times</title></rect><rect fill="#ffa10e" height="2.6" width="2.6" x="55.5" y="56.0"><title>2023-03-30 94.7 times</title></rect><rect fill="#f2ff19" height="2.6" width="2.6" x="55.5" y="59.5"><title>2023-03-31 90.8 times</title></rect><rect fill="red" height="2.6" width="2.6" x="55.5" y="63.0"><title>2023-04-01 100 times</title></rect><rect fill="red" height="2.6" width="2.6" x="55.5" y="66.5"><title>2023-04-02 100 times</title></rect><rect fill="red" height="2.6" width="2.6" x="59.0" y="45.5"><title>2023-04-03 100 times</title></rect><rect fill="red" height="2.6" width="2.6" x="59.0" y="49.0"><title>2023-04-04 100 times</title></rect><rect fill="#444444" height="2.6" width="2.6" x="59.0" y="52.5"><title>2023-04-05</title></rect><rect fill="red" height="2.6" width="2.6" x="59.0" y="56.0"><title>2023-04-06 100 times</title></rect><rect fill="#b7ff1f" height="2.6" width="2.6" x="59.0" y="59.5"><title>2023-04-07 88.5 times</title></rect><rect fill="#444444" height="2.6" width="2.6" x="59.0" y="63.0"><title>2023-04-08</title></rect><rect fill="red" height="2.6" width="2.6" x="59.0" y="66.5"><title>2023-04-09 100 times</title></rect><rect fill="red" height="2.6" width="2.6" x="62.5" y="45.5"><title>2023-04-10 100 times</title></rect><rect fill="red" height="2.6" width="2.6" x="62.5" y="49.0"><title>2023-04-11 100 times</title></rect><rect fill="#444444" height="2.6" width="2.6" x="62.5" y="52.5"><title>2023-04-12</title></rect><rect fill="red" height="2.6" width="2.6" x="62.5" y="56.0"><title>2023-04-13 100 times</title></rect><rect fill="red" height="2.6" width="2.6" x="62.5" y="59.5"><title>2023-04-14 100 times</title></rect><rect fill="#444444" height="2.6" width="2.6" x="62.5" y="63.0"><title>2023-04-15</title></rect><rect fill="#444444" height="2.6" width="2.6" x="62.5" y="66.5"><title>2023-04-16</title></rect><rect fill="red" height="2.6" width="2.6" x="66.0" y="45.5"><title>2023-04-17 100 times</title></rect><rect fill="red" height="2.6" width="2.6" x="66.0" y="49.0"><title>2023-04-18 100 times</title></rect><rect fill="red" height="2.6" width="2.6" x="66.0" y="52.5"><title>2023-04-19 100 times</title></rect><rect fill="red" height="2.6" width="2.6" x="66.0" y="56.0"><title>2023-04-20 100 times</title></rect><rect fill="red" height="2.6" width="2.6" x="66.0" y="59.5"><title>2023-04-21 100 times</title></rect><rect fill="red" height="2.6" width="2.6" x="66.0" y="63.0"><title>2023-04-22 100 times</title></rect><rect fill="red" height="2.6" width="2.6" x="66.0" y="66.5"><title>2023-04-23 100 times</title></rect><rect fill="#444444" height="2.6" width="2.6" x="69.5" y="45.5"><title>2023-04-24</title></rect><rect fill="#56ff2a" height="2.6" width="2.6" x="69.5" y="49.0"><title>2023-04-25 84.4 times</title></rect><rect fill="#444444" height="2.6" width="2.6" x="69.5" y="52.5"><title>2023-04-26</title></rect><rect fill="#444444" height="2.6" width="2.6" x="69.5" y="56.0"><title>2023-04-27</title></rect><rect fill="red" height="2.6" width="2.6" x="69.5" y="59.5"><title>2023-04-28 100 times</title></rect><rect fill="#444444" height="2.6" width="2.6" x="69.5" y="63.0"><title>2023-04-29</title></rect><rect fill="#444444" height="2.6" width="2.6" x="69.5" y="66.5"><title>2023-04-30</title></rect><rect fill="#444444" height="2.6" width="2.6" x="73.0" y="45.5"><title>2023-05-01</title></rect><rect fill="#444444" height="2.6" width="2.6" x="73.0" y="49.0"><title>2023-05-02</title></rect><rect fill="#444444" height="2.6" width="2.6" x="73.0" y="52.5"><title>2023-05-03</title></rect><rect fill="#ffaa0f" height="2.6" width="2.6" x="73.0" y="56.0"><title>2023-05-04 94.4 times</title></rect><rect fill="red" height="2.6" width="2.6" x="73.0" y="59.5"><title>2023-05-05 100 times</title></rect><rect fill="red" height="2.6" width="2.6" x="73.0" y="63.0"><title>2023-05-06 100 times</title></rect><rect fill="red" height="2.6" width="2.6" x="73.0" y="66.5"><title>2023-05-07 100 times</title></rect><rect fill="red" height="2.6" width="2.6" x="76.5" y="45.5"><title>2023-05-08 100 times</title></rect><rect fill="red" height="2.6" width="2.6" x="76.5" y="49.0"><title>2023-05-09 98.5 times</title></rect><rect fill="red" height="2.6" width="2.6" x="76.5" y="52.5"><title>2023-05-10 100 times</title></rect><rect fill="red" height="2.6" width="2.6" x="76.5" y="56.0"><title>2023-05-11 100 times</title></rect><rect fill="#444444" height="2.6" width="2.6" x="76.5" y="59.5"><title>2023-05-12</title></rect><rect fill="#444444" height="2.6" width="2.6" x="76.5" y="63.0"><title>2023-05-13</title></rect><rect fill="#444444" height="2.6" width="2.6" x="76.5" y="66.5"><title>2023-05-14</title></rect><rect fill="red" height="2.6" width="2.6" x="80.0" y="45.5"><title>2023-05-15 100 times</title></rect><rect fill="red" height="2.6" width="2.6" x="80.0" y="49.0"><title>2023-05-16 100 times</title></rect><rect fill="red" height="2.6" width="2.6" x="80.0" y="52.5"><title>2023-05-17 100 times</title></rect><rect fill="red" height="2.6" width="2.6" x="80.0" y="56.0"><title>2023-05-18 100 times</title></rect><rect fill="red" height="2.6" width="2.6" x="80.0" y="59.5"><title>2023-05-19 100 times</title></rect><rect fill="#444444" height="2.6" width="2.6" x="80.0" y="63.0"><title>2023-05-20</title></rect><rect fill="red" height="2.6" width="2.6" x="80.0" y="66.5"><title>2023-05-21 100 times</title></rect><rect fill="red" height="2.6" width="2.6" x="83.5" y="45.5"><title>2023-05-22 100 times</title></rect><rect fill="red" height="2.6" width="2.6" x="83.5" y="49.0"><title>2023-05-23 100 times</title></rect><rect fill="red" height="2.6" width="2.6" x="83.5" y="52.5"><title>2023-05-24 100 times</title></rect><rect fill="red" height="2.6" width="2.6" x="83.5" y="56.0"><title>2023-05-25 100 times</title></rect><rect fill="red" height="2.6" width="2.6" x="83.5" y="59.5"><title>2023-05-26 100 times</title></rect><rect fill="#444444" height="2.6" width="2.6" x="83.5" y="63.0"><title>2023-05-27</title></rect><rect fill="red" height="2.6" width="2.6" x="83.5" y="66.5"><title>2023-05-28 100 times</title></rect><rect fill="#4bdeff" height="2.6" width="2.6" x="87.0" y="45.5"><title>2023-05-29 72.3 times</title></rect><rect fill="#ff1b00" height="2.6" width="2.6" x="87.0" y="49.0"><title>2023-05-30 97 times</title></rect><rect fill="red" height="2.6" width="2.6" x="87.0" y="52.5"><title>2023-05-31 100 times</title></rect><rect fill="#444444" height="2.6" width="2.6" x="87.0" y="56.0"><title>2023-06-01</title></rect><rect fill="#444444" height="2.6" width="2.6" x="87.0" y="59.5"><title>2023-06-02</title></rect><rect fill="#444444" height="2.6" width="2.6" x="87.0" y="63.0"><title>2023-06-03</title></rect><rect fill="#444444" height="2.6" width="2.6" x="87.0" y="66.5"><title>2023-06-04</title></rect><rect fill="red" height="2.6" width="2.6" x="90.5" y="45.5"><title>2023-06-05 100 times</title></rect><rect fill="red" height="2.6" width="2.6" x="90.5" y="49.0"><title>2023-06-06 100 times</title></rect><rect fill="#444444" height="2.6" width="2.6" x="90.5" y="52.5"><title>2023-06-07</title></rect><rect fill="#444444" height="2.6" width="2.6" x="90.5" y="56.0"><title>2023-06-08</title></rect><rect fill="#444444" height="2.6" width="2.6" x="90.5" y="59.5"><title>2023-06-09</title></rect><rect fill="red" height="2.6" width="2.6" x="90.5" y="63.0"><title>2023-06-10 100 times</title></rect><rect fill="#444444" height="2.6" width="2.6" x="90.5" y="66.5"><title>2023-06-11</title></rect><rect fill="#444444" height="2.6" width="2.6" x="94.0" y="45.5"><title>2023-06-12</title></rect><rect fill="red" height="2.6" width="2.6" x="94.0" y="49.0"><title>2023-06-13 100 times</title></rect><rect fill="red" height="2.6" width="2.6" x="94.0" y="52.5"><title>2023-06-14 100 times</title></rect><rect fill="#444444" height="2.6" width="2.6" x="94.0" y="56.0"><title>2023-06-15</title></rect><rect fill="red" height="2.6" width="2.6" x="94.0" y="59.5"><title>2023-06-16 100 times</title></rect><rect fill="red" height="2.6" width="2.6" x="94.0" y="63.0"><title>2023-06-17 100 times</title></rect><rect fill="red" height="2.6" width="2.6" x="94.0" y="66.5"><title>2023-06-18 100 times</title></rect><rect fill="#444444" height="2.6" width="2.6" x="97.5" y="45.5"><title>2023-06-19</title></rect><rect fill="#444444" height="2.6" width="2.6" x="97.5" y="49.0"><title>2023-06-20</title></rect><rect fill="#444444" height="2.6" width="2.6" x="97.5" y="52.5"><title>2023-06-21</title></rect><rect fill="red" height="2.6" width="2.6" x="97.5" y="56.0"><title>2023-06-22 100 times</title></rect><rect fill="#444444" height="2.6" width="2.6" x="97.5" y="59.5"><title>2023-06-23</title></rect><rect fill="red" height="2.6" width="2.6" x="97.5" y="63.0"><title>2023-06-24 100 times</title></rect><rect fill="#444444" height="2.6" width="2.6" x="97.5" y="66.5"><title>2023-06-25</title></rect><rect fill="red" height="2.6" width="2.6" x="101.0" y="45.5"><title>2023-06-26 100 times</title></rect><rect fill="#444444" height="2.6" width="2.6" x="101.0" y="49.0"><title>2023-06-27</title></rect><rect fill="#444444" height="2.6" width="2.6" x="101.0" y="52.5"><title>2023-06-28</title></rect><rect fill="#ff1a00" height="2.6" width="2.6" x="101.0" y="56.0"><title>2023-06-29 97.1 times</title></rect><rect fill="#fffc17" height="2.6" width="2.6" x="101.0" y="59.5"><title>2023-06-30 91.4 times</title></rect><rect fill="#444444" height="2.6" width="2.6" x="101.0" y="63.0"><title>2023-07-01</title></rect><rect fill="#444444" height="2.6" width="2.6" x="101.0" y="66.5"><title>2023-07-02</title></rect><rect fill="red" height="2.6" width="2.6" x="104.5" y="45.5"><title>2023-07-03 100 times</title></rect><rect fill="#ff1c00" height="2.6" width="2.6" x="104.5" y="49.0"><title>2023-07-04 96.9 times</title></rect><rect fill="red" height="2.6" width="2.6" x="104.5" y="52.5"><title>2023-07-05 100 times</title></rect><rect fill="red" height="2.6" width="2.6" x="104.5" y="56.0"><title>2023-07-06 100 times</title></rect><rect fill="#444444" height="2.6" width="2.6" x="104.5" y="59.5"><title>2023-07-07</title></rect><rect fill="#444444" height="2.6" width="2.6" x="104.5" y="63.0"><title>2023-07-08</title></rect><rect fill="#444444" height="2.6" width="2.6" x="104.5" y="66.5"><title>2023-07-09</title></rect><rect fill="#444444" height="2.6" width="2.6" x="108.0" y="45.5"><title>2023-07-10</title></rect><rect fill="#444444" height="2.6" width="2.6" x="108.0" y="49.0"><title>2023-07-11</title></rect><rect fill="#444444" height="2.6" width="2.6" x="108.0" y="52.5"><title>2023-07-12</title></rect><rect fill="red" height="2.6" width="2.6" x="108.0" y="56.0"><title>2023-07-13 100 times</title></rect><rect fill="#444444" height="2.6" width="2.6" x="108.0" y="59.5"><title>2023-07-14</title></rect><rect fill="#444444" height="2.6" width="2.6" x="108.0" y="63.0"><title>2023-07-15</title></rect><rect fill="#444444" height="2.6" width="2.6" x="108.0" y="66.5"><title>2023-07-16</title></rect><rect fill="#444444" height="2.6" width="2.6" x="111.5" y="45.5"><title>2023-07-17</title></rect><rect fill="red" height="2.6" width="2.6" x="111.5" y="49.0"><title>2023-07-18 100 times</title></rect><rect fill="red" height="2.6" width="2.6" x="111.5" y="52.5"><title>2023-07-19 100 times</title></rect><rect fill="#444444" height="2.6" width="2.6" x="111.5" y="56.0"><title>2023-07-20</title></rect><rect fill="#ffdc14" height="2.6" width="2.6" x="111.5" y="59.5"><title>2023-07-21 92.6 times</title></rect><rect fill="red" height="2.6" width="2.6" x="111.5" y="63.0"><title>2023-07-22 100 times</title></rect><rect fill="#444444" height="2.6" width="2.6" x="111.5" y="66.5"><title>2023-07-23</title></rect><rect fill="#444444" height="2.6" width="2.6" x="115.0" y="45.5"><title>2023-07-24</title></rect><rect fill="#444444" height="2.6" width="2.6" x="115.0" y="49.0"><title>2023-07-25</title></rect><rect fill="red" height="2.6" width="2.6" x="115.0" y="52.5"><title>2023-07-26 100 times</title></rect><rect fill="#444444" height="2.6" width="2.6" x="115.0" y="56.0"><title>2023-07-27</title></rect><rect fill="#444444" height="2.6" width="2.6" x="115.0" y="59.5"><title>2023-07-28</title></rect><rect fill="#444444" height="2.6" width="2.6" x="115.0" y="63.0"><title>2023-07-29</title></rect><rect fill="#444444" height="2.6" width="2.6" x="115.0" y="66.5"><title>2023-07-30</title></rect><rect fill="#444444" height="2.6" width="2.6" x="118.5" y="45.5"><title>2023-07-31</title></rect><rect fill="#444444" height="2.6" width="2.6" x="118.5" y="49.0"><title>2023-08-01</title></rect><rect fill="#444444" height="2.6" width="2.6" x="118.5" y="52.5"><title>2023-08-02</title></rect><rect fill="#444444" height="2.6" width="2.6" x="118.5" y="56.0"><title>2023-08-03</title></rect><rect fill="#444444" height="2.6" width="2.6" x="118.5" y="59.5"><title>2023-08-04</title></rect><rect fill="red" height="2.6" width="2.6" x="118.5" y="63.0"><title>2023-08-05 100 times</title></rect><rect fill="red" height="2.6" width="2.6" x="118.5" y="66.5"><title>2023-08-06 99.8 times</title></rect><rect fill="red" height="2.6" width="2.6" x="122.0" y="45.5"><title>2023-08-07 100 times</title></rect><rect fill="red" height="2.6" width="2.6" x="122.0" y="49.0"><title>2023-08-08 100 times</title></rect><rect fill="red" height="2.6" width="2.6" x="122.0" y="52.5"><title>2023-08-09 100 times</title></rect><rect fill="red" height="2.6" width="2.6" x="122.0" y="56.0"><title>2023-08-10 99.8 times</title></rect><rect fill="#444444" height="2.6" width="2.6" x="122.0" y="59.5"><title>2023-08-11</title></rect><rect fill="#444444" height="2.6" width="2.6" x="122.0" y="63.0"><title>2023-08-12</title></rect><rect fill="#444444" height="2.6" width="2.6" x="122.0" y="66.5"><title>2023-08-13</title></rect><rect fill="red" height="2.6" width="2.6" x="125.5" y="45.5"><title>2023-08-14 100 times</title></rect><rect fill="red" height="2.6" width="2.6" x="125.5" y="49.0"><title>2023-08-15 100 times</title></rect><rect fill="red" height="2.6" width="2.6" x="125.5" y="52.5"><title>2023-08-16 100 times</title></rect><rect fill="#444444" height="2.6" width="2.6" x="125.5" y="56.0"><title>2023-08-17</title></rect><rect fill="red" height="2.6" width="2.6" x="125.5" y="59.5"><title>2023-08-18 100 times</title></rect><rect fill="#ff1700" height="2.6" width="2.6" x="125.5" y="63.0"><title>2023-08-19 97.4 times</title></rect><rect fill="red" height="2.6" width="2.6" x="125.5" y="66.5"><title>2023-08-20 100 times</title></rect><rect fill="red" height="2.6" width="2.6" x="129.0" y="45.5"><title>2023-08-21 100 times</title></rect><rect fill="#ff1900" height="2.6" width="2.6" x="129.0" y="49.0"><title>2023-08-22 97.2 times</title></rect><rect fill="#444444" height="2.6" width="2.6" x="129.0" y="52.5"><title>2023-08-23</title></rect><rect fill="red" height="2.6" width="2.6" x="129.0" y="56.0"><title>2023-08-24 100 times</title></rect><rect fill="red" height="2.6" width="2.6" x="129.0" y="59.5"><title>2023-08-25 100 times</title></rect><rect fill="#444444" height="2.6" width="2.6" x="129.0" y="63.0"><title>2023-08-26</title></rect><rect fill="#ffe715" height="2.6" width="2.6" x="129.0" y="66.5"><title>2023-08-27 92.2 times</title></rect><rect fill="#47ff2c" height="2.6" width="2.6" x="132.5" y="45.5"><title>2023-08-28 83.7 times</title></rect><rect fill="red" height="2.6" width="2.6" x="132.5" y="49.0"><title>2023-08-29 97.7 times</title></rect><rect fill="red" height="2.6" width="2.6" x="132.5" y="52.5"><title>2023-08-30 100 times</title></rect><rect fill="red" height="2.6" width="2.6" x="132.5" y="56.0"><title>2023-08-31 100 times</title></rect><rect fill="red" height="2.6" width="2.6" x="132.5" y="59.5"><title>2023-09-01 100 times</title></rect><rect fill="#444444" height="2.6" width="2.6" x="132.5" y="63.0"><title>2023-09-02</title></rect><rect fill="red" height="2.6" width="2.6" x="132.5" y="66.5"><title>2023-09-03 100 times</title></rect><rect fill="#444444" height="2.6" width="2.6" x="136.0" y="45.5"><title>2023-09-04</title></rect><rect fill="red" height="2.6" width="2.6" x="136.0" y="49.0"><title>2023-09-05 100 times</title></rect><rect fill="red" height="2.6" width="2.6" x="136.0" y="52.5"><title>2023-09-06 100 times</title></rect><rect fill="red" height="2.6" width="2.6" x="136.0" y="56.0"><title>2023-09-07 100 times</title></rect><rect fill="#444444" height="2.6" width="2.6" x="136.0" y="59.5"><title>2023-09-08</title></rect><rect fill="#444444" height="2.6" width="2.6" x="136.0" y="63.0"><title>2023-09-09</title></rect><rect fill="#444444" height="2.6" width="2.6" x="136.0" y="66.5"><title>2023-09-10</title></rect><rect fill="red" height="2.6" width="2.6" x="139.5" y="45.5"><title>2023-09-11 100 times</title></rect><rect fill="red" height="2.6" width="2.6" x="139.5" y="49.0"><title>2023-09-12 100 times</title></rect><rect fill="red" height="2.6" width="2.6" x="139.5" y="52.5"><title>2023-09-13 100 times</title></rect><rect fill="red" height="2.6" width="2.6" x="139.5" y="56.0"><title>2023-09-14 98.7 times</title></rect><rect fill="red" height="2.6" width="2.6" x="139.5" y="59.5"><title>2023-09-15 100 times</title></rect><rect fill="#ff950d" height="2.6" width="2.6" x="139.5" y="63.0"><title>2023-09-16 95.1 times</title></rect><rect fill="red" height="2.6" width="2.6" x="139.5" y="66.5"><title>2023-09-17 100 times</title></rect><rect fill="#ffb510" height="2.6" width="2.6" x="143.0" y="45.5"><title>2023-09-18 94 times</title></rect><rect fill="red" height="2.6" width="2.6" x="143.0" y="49.0"><title>2023-09-19 99.8 times</title></rect><rect fill="#444444" height="2.6" width="2.6" x="143.0" y="52.5"><title>2023-09-20</title></rect><rect fill="red" height="2.6" width="2.6" x="143.0" y="56.0"><title>2023-09-21 100 times</title></rect><rect fill="red" height="2.6" width="2.6" x="143.0" y="59.5"><title>2023-09-22 100 times</title></rect><rect fill="red" height="2.6" width="2.6" x="143.0" y="63.0"><title>2023-09-23 100 times</title></rect><rect fill="red" height="2.6" width="2.6" x="143.0" y="66.5"><title>2023-09-24 100 times</title></rect><rect fill="red" height="2.6" width="2.6" x="146.5" y="45.5"><title>2023-09-25 100 times</title></rect><rect fill="red" height="2.6" width="2.6" x="146.5" y="49.0"><title>2023-09-26 100 times</title></rect><rect fill="red" height="2.6" width="2.6" x="146.5" y="52.5"><title>2023-09-27 100 times</title></rect><rect fill="#444444" height="2.6" width="2.6" x="146.5" y="56.0"><title>2023-09-28</title></rect><rect fill="red" height="2.6" width="2.6" x="146.5" y="59.5"><title>2023-09-29 100 times</title></rect><rect fill="#ff980e" height="2.6" width="2.6" x="146.5" y="63.0"><title>2023-09-30 95 times</title></rect><rect fill="#444444" height="2.6" width="2.6" x="146.5" y="66.5"><title>2023-10-01</title></rect><rect fill="#fffc17" height="2.6" width="2.6" x="150.0" y="45.5"><title>2023-10-02 91.4 times</title></rect><rect fill="red" height="2.6" width="2.6" x="150.0" y="49.0"><title>2023-10-03 100 times</title></rect><rect fill="#ffac10" height="2.6" width="2.6" x="150.0" y="52.5"><title>2023-10-04 94.3 times</title></rect><rect fill="#444444" height="2.6" width="2.6" x="150.0" y="56.0"><title>2023-10-05</title></rect><rect fill="red" height="2.6" width="2.6" x="150.0" y="59.5"><title>2023-10-06 99.6 times</title></rect><rect fill="red" height="2.6" width="2.6" x="150.0" y="63.0"><title>2023-10-07 100 times</title></rect><rect fill="red" height="2.6" width="2.6" x="150.0" y="66.5"><title>2023-10-08 100 times</title></rect><rect fill="#92ff23" height="2.6" width="2.6" x="153.5" y="45.5"><title>2023-10-09 87 times</title></rect><rect fill="red" height="2.6" width="2.6" x="153.5" y="49.0"><title>2023-10-10 100 times</title></rect><rect fill="red" height="2.6" width="2.6" x="153.5" y="52.5"><title>2023-10-11 100 times</title></rect><rect fill="red" height="2.6" width="2.6" x="153.5" y="56.0"><title>2023-10-12 100 times</title></rect><rect fill="red" height="2.6" width="2.6" x="153.5" y="59.5"><title>2023-10-13 100 times</title></rect><rect fill="#ff1e00" height="2.6" width="2.6" x="153.5" y="63.0"><title>2023-10-14 96.7 times</title></rect><rect fill="#ff9e0e" height="2.6" width="2.6" x="153.5" y="66.5"><title>2023-10-15 94.8 times</title></rect><rect fill="red" height="2.6" width="2.6" x="157.0" y="45.5"><title>2023-10-16 100 times</title></rect><rect fill="red" height="2.6" width="2.6" x="157.0" y="49.0"><title>2023-10-17 100 times</title></rect><rect fill="red" height="2.6" width="2.6" x="157.0" y="52.5"><title>2023-10-18 100 times</title></rect><rect fill="red" height="2.6" width="2.6" x="157.0" y="56.0"><title>2023-10-19 100 times</title></rect><rect fill="red" height="2.6" width="2.6" x="157.0" y="59.5"><title>2023-10-20 100 times</title></rect><rect fill="#ffdf14" height="2.6" width="2.6" x="157.0" y="63.0"><title>2023-10-21 92.5 times</title></rect><rect fill="red" height="2.6" width="2.6" x="157.0" y="66.5"><title>2023-10-22 100 times</title></rect><rect fill="#31ff3f" height="2.6" width="2.6" x="160.5" y="45.5"><title>2023-10-23 82 times</title></rect><rect fill="red" height="2.6" width="2.6" x="160.5" y="49.0"><title>2023-10-24 100 times</title></rect><rect fill="red" height="2.6" width="2.6" x="160.5" y="52.5"><title>2023-10-25 100 times</title></rect><rect fill="#444444" height="2.6" width="2.6" x="160.5" y="56.0"><title>2023-10-26</title></rect><rect fill="#ff1c00" height="2.6" width="2.6" x="160.5" y="59.5"><title>2023-10-27 96.9 times</title></rect><rect fill="#b9ff1f" height="2.6" width="2.6" x="160.5" y="63.0"><title>2023-10-28 88.6 times</title></rect><rect fill="red" height="2.6" width="2.6" x="160.5" y="66.5"><title>2023-10-29 100 times</title></rect><rect fill="red" height="2.6" width="2.6" x="164.0" y="45.5"><title>2023-10-30 100 times</title></rect><rect fill="red" height="2.6" width="2.6" x="164.0" y="49.0"><title>2023-10-31 100 times</title></rect><rect fill="red" height="2.6" width="2.6" x="164.0" y="52.5"><title>2023-11-01 100 times</title></rect><rect fill="#444444" height="2.6" width="2.6" x="164.0" y="56.0"><title>2023-11-02</title></rect><rect fill="red" height="2.6" width="2.6" x="164.0" y="59.5"><title>2023-11-03 100 times</title></rect><rect fill="#444444" height="2.6" width="2.6" x="164.0" y="63.0"><title>2023-11-04</title></rect><rect fill="red" height="2.6" width="2.6" x="164.0" y="66.5"><title>2023-11-05 100 times</title></rect><rect fill="red" height="2.6" width="2.6" x="167.5" y="45.5"><title>2023-11-06 100 times</title></rect><rect fill="red" height="2.6" width="2.6" x="167.5" y="49.0"><title>2023-11-07 100 times</title></rect><rect fill="red" height="2.6" width="2.6" x="167.5" y="52.5"><title>2023-11-08 100 times</title></rect><rect fill="#444444" height="2.6" width="2.6" x="167.5" y="56.0"><title>2023-11-09</title></rect><rect fill="#ff2300" height="2.6" width="2.6" x="167.5" y="59.5"><title>2023-11-10 96.1 times</title></rect><rect fill="#444444" height="2.6" width="2.6" x="167.5" y="63.0"><title>2023-11-11</title></rect><rect fill="#444444" height="2.6" width="2.6" x="167.5" y="66.5"><title>2023-11-12</title></rect><rect fill="red" height="2.6" width="2.6" x="171.0" y="45.5"><title>2023-11-13 100 times</title></rect><rect fill="#444444" height="2.6" width="2.6" x="171.0" y="49.0"><title>2023-11-14</title></rect><rect fill="red" height="2.6" width="2.6" x="171.0" y="52.5"><title>2023-11-15 100 times</title></rect><rect fill="red" height="2.6" width="2.6" x="171.0" y="56.0"><title>2023-11-16 100 times</title></rect><rect fill="#444444" height="2.6" width="2.6" x="171.0" y="59.5"><title>2023-11-17</title></rect><rect fill="red" height="2.6" width="2.6" x="171.0" y="63.0"><title>2023-11-18 100 times</title></rect><rect fill="red" height="2.6" width="2.6" x="171.0" y="66.5"><title>2023-11-19 100 times</title></rect><rect fill="red" height="2.6" width="2.6" x="174.5" y="45.5"><title>2023-11-20 100 times</title></rect><rect fill="red" height="2.6" width="2.6" x="174.5" y="49.0"><title>2023-11-21 100 times</title></rect><rect fill="#444444" height="2.6" width="2.6" x="174.5" y="52.5"><title>2023-11-22</title></rect><rect fill="red" height="2.6" width="2.6" x="174.5" y="56.0"><title>2023-11-23 100 times</title></rect><rect fill="#ff1700" height="2.6" width="2.6" x="174.5" y="59.5"><title>2023-11-24 97.4 times</title></rect><rect fill="red" height="2.6" width="2.6" x="174.5" y="63.0"><title>2023-11-25 100 times</title></rect><rect fill="red" height="2.6" width="2.6" x="174.5" y="66.5"><title>2023-11-26 100 times</title></rect><rect fill="#444444" height="2.6" width="2.6" x="178.0" y="45.5"><title>2023-11-27</title></rect><rect fill="#444444" height="2.6" width="2.6" x="178.0" y="49.0"><title>2023-11-28</title></rect><rect fill="red" height="2.6" width="2.6" x="178.0" y="52.5"><title>2023-11-29 100 times</title></rect><rect fill="red" height="2.6" width="2.6" x="178.0" y="56.0"><title>2023-11-30 100 times</title></rect><rect fill="#ff2900" height="2.6" width="2.6" x="178.0" y="59.5"><title>2023-12-01 95.5 times</title></rect><rect fill="#444444" height="2.6" width="2.6" x="178.0" y="63.0"><title>2023-12-02</title></rect><rect fill="red" height="2.6" width="2.6" x="178.0" y="66.5"><title>2023-12-03 100 times</title></rect><rect fill="red" height="2.6" width="2.6" x="181.5" y="45.5"><title>2023-12-04 100 times</title></rect><rect fill="#ff1700" height="2.6" width="2.6" x="181.5" y="49.0"><title>2023-12-05 97.5 times</title></rect><rect fill="red" height="2.6" width="2.6" x="181.5" y="52.5"><title>2023-12-06 100 times</title></rect><rect fill="red" height="2.6" width="2.6" x="181.5" y="56.0"><title>2023-12-07 100 times</title></rect><rect fill="#444444" height="2.6" width="2.6" x="181.5" y="59.5"><title>2023-12-08</title></rect><rect fill="red" height="2.6" width="2.6" x="181.5" y="63.0"><title>2023-12-09 100 times</title></rect><rect fill="red" height="2.6" width="2.6" x="181.5" y="66.5"><title>2023-12-10 100 times</title></rect><rect fill="red" height="2.6" width="2.6" x="185.0" y="45.5"><title>2023-12-11 100 times</title></rect><rect fill="red" height="2.6" width="2.6" x="185.0" y="49.0"><title>2023-12-12 100 times</title></rect><rect fill="red" height="2.6" width="2.6" x="185.0" y="52.5"><title>2023-12-13 100 times</title></rect><rect fill="red" height="2.6" width="2.6" x="185.0" y="56.0"><title>2023-12-14 97.9 times</title></rect><rect fill="#444444" height="2.6" width="2.6" x="185.0" y="59.5"><title>2023-12-15</title></rect><rect fill="#444444" height="2.6" width="2.6" x="185.0" y="63.0"><title>2023-12-16</title></rect><rect fill="#444444" height="2.6" width="2.6" x="185.0" y="66.5"><title>2023-12-17</title></rect><rect fill="red" height="2.6" width="2.6" x="188.5" y="45.5"><title>2023-12-18 100 times</title></rect><rect fill="red" height="2.6" width="2.6" x="188.5" y="49.0"><title>2023-12-19 100 times</title></rect><rect fill="red" height="2.6" width="2.6" x="188.5" y="52.5"><title>2023-12-20 100 times</title></rect><rect fill="red" height="2.6" width="2.6" x="188.5" y="56.0"><title>2023-12-21 100 times</title></rect><rect fill="red" height="2.6" width="2.6" x="188.5" y="59.5"><title>2023-12-22 100 times</title></rect><rect fill="#444444" height="2.6" width="2.6" x="188.5" y="63.0"><title>2023-12-23</title></rect><rect fill="#444444" height="2.6" width="2.6" x="188.5" y="66.5"><title>2023-12-24</title></rect><rect fill="red" height="2.6" width="2.6" x="192.0" y="45.5"><title>2023-12-25 100 times</title></rect><rect fill="red" height="2.6" width="2.6" x="192.0" y="49.0"><title>2023-12-26 100 times</title></rect><rect fill="red" height="2.6" width="2.6" x="192.0" y="52.5"><title>2023-12-27 100 times</title></rect><rect fill="red" height="2.6" width="2.6" x="192.0" y="56.0"><title>2023-12-28 100 times</title></rect><rect fill="#ff1900" height="2.6" width="2.6" x="192.0" y="59.5"><title>2023-12-29 97.2 times</title></rect><rect fill="#444444" height="2.6" width="2.6" x="192.0" y="63.0"><title>2023-12-30</title></rect><rect fill="#444444" height="2.6" width="2.6" x="192.0" y="66.5"><title>2023-12-31</title></rect></svg>