<?xml version="1.0" encoding="utf-8" ?>
<svg baseProfile="full" height="78mm" version="1.1" viewBox="0,0,200,78" width="200mm" xmlns="http://www.w3.org/2000/svg" xmlns:ev="http://www.w3.org/2001/xml-events" xmlns:xlink="http://www.w3.org/1999/xlink"><defs /><rect fill="#222222" height="78" width="200" x="0" y="0" /><text fill="#FFFFFF" style="font-size:12px; font-family:Arial; font-weight:bold;" x="10" y="20">rubickecho</text><text dominant-baseline="hanging" fill="#FFFFFF" style="font-size:10.0px; font-family:Arial;" x="10" y="30">2023</text><text fill="#FFFFFF" style="font-size:2.5px; font-family:Arial" x="10.0" y="44">Jan</text><text fill="#FFFFFF" style="font-size:2.5px; font-family:Arial" x="25.5" y="44">Feb</text><text fill="#FFFFFF" style="font-size:2.5px; font-family:Arial" x="41.0" y="44">Mar</text><text fill="#FFFFFF" style="font-size:2.5px; font-family:Arial" x="56.5" y="44">Apr</text><text fill="#FFFFFF" style="font-size:2.5px; font-family:Arial" x="72.0" y="44">May</text><text fill="#FFFFFF" style="font-size:2.5px; font-family:Arial" x="87.5" y="44">Jun</text><text fill="#FFFFFF" style="font-size:2.5px; font-family:Arial" x="103.0" y="44">Jul</text><text fill="#FFFFFF" style="font-size:2.5px; font-family:Arial" x="118.5" y="44">Aug</text><text fill="#FFFFFF" style="font-size:2.5px; font-family:Arial" x="134.0" y="44">Sep</text><text fill="#FFFFFF" style="font-size:2.5px; font-family:Arial" x="149.5" y="44">Oct</text><text fill="#FFFFFF" style="font-size:2.5px; font-family:Arial" x="165.0" y="44">Nov</text><text fill="#FFFFFF" style="font-size:2.5px; font-family:Arial" x="180.5" y="44">Dec</text><rect fill="#444444" height="2.6" width="2.6" x="10.0" y="45.5" /><rect fill="#444444" height="2.6" width="2.6" x="10.0" y="49.0" /><rect fill="#444444" height="2.6" width="2.6" x="10.0" y="52.5" /><rect fill="#444444" height="2.6" width="2.6" x="10.0" y="56.0" /><rect fill="#444444" height="2.6" width="2.6" x="10.0" y="59.5" /><rect fill="#444444" height="2.6" width="2.6" x="10.0" y="63.0" /><rect fill="#444444" height="2.6" width="2.6" x="10.0" y="66.5" /><rect fill="#444444" height="2.6" width="2.6" x="13.5" y="45.5" /><rect fill="#444444" height="2.6" width="2.6" x="13.5" y="49.0" /><rect fill="#444444" height="2.6" width="2.6" x="13.5" y="52.5" /><rect fill="#444444" height="2.6" width="2.6" x="13.5" y="56.0" /><rect fill="#444444" height="2.6" width="2.6" x="13.5" y="59.5" /><rect fill="#444444" height="2.6" width="2.6" x="13.5" y="63.0" /><rect fill="#444444" height="2.6" width="2.6" x="13.5" y="66.5" /><rect fill="#444444" height="2.6" width="2.6" x="17.0" y="45.5" /><rect fill="#444444" height="2.6" width="2.6" x="17.0" y="49.0" /><rect fill="#444444" height="2.6" width="2.6" x="17.0" y="52.5" /><rect fill="#444444" height="2.6" width="2.6" x="17.0" y="56.0" /><rect fill="#444444" height="2.6" width="2.6" x="17.0" y="59.5" /><rect fill="#444444" height="2.6" width="2.6" x="17.0" y="63.0" /><rect fill="#444444" height="2.6" width="2.6" x="17.0" y="66.5" /><rect fill="#444444" height="2.6" width="2.6" x="20.5" y="45.5" /><rect fill="#444444" height="2.6" width="2.6" x="20.5" y="49.0" /><rect fill="#444444" height="2.6" width="2.6" x="20.5" y="52.5" /><rect fill="#444444" height="2.6" width="2.6" x="20.5" y="56.0" /><rect fill="#444444" height="2.6" width="2.6" x="20.5" y="59.5" /><rect fill="#444444" height="2.6" width="2.6" x="20.5" y="63.0" /><rect fill="#444444" height="2.6" width="2.6" x="20.5" y="66.5" /><rect fill="#444444" height="2.6" width="2.6" x="24.0" y="45.5" /><rect fill="#444444" height="2.6" width="2.6" x="24.0" y="49.0" /><rect fill="#444444" height="2.6" width="2.6" x="24.0" y="52.5" /><rect fill="#444444" height="2.6" width="2.6" x="24.0" y="56.0" /><rect fill="#444444" height="2.6" width="2.6" x="24.0" y="59.5" /><rect fill="#444444" height="2.6" width="2.6" x="24.0" y="63.0" /><rect fill="#444444" height="2.6" width="2.6" x="24.0" y="66.5" /><rect fill="#444444" height="2.6" width="2.6" x="27.5" y="45.5" /><rect fill="#444444" height="2.6" width="2.6" x="27.5" y="49.0" /><rect fill="#444444" height="2.6" width="2.6" x="27.5" y="52.5" /><rect fill="#444444" height="2.6" width="2.6" x="27.5" y="56.0" /><rect fill="#444444" height="2.6" width="2.6" x="27.5" y="59.5" /><rect fill="#444444" height="2.6" width="2.6" x="27.5" y="63.0" /><rect fill="#444444" height="2.6" width="2.6" x="27.5" y="66.5" /><rect fill="#444444" height="2.6" width="2.6" x="31.0" y="45.5" /><rect fill="#444444" height="2.6" width="2.6" x="31.0" y="49.0" /><rect fill="#444444" height="2.6" width="2.6" x="31.0" y="52.5" /><rect fill="#444444" height="2.6" width="2.6" x="31.0" y="56.0" /><rect fill="#444444" height="2.6" width="2.6" x="31.0" y="59.5" /><rect fill="#444444" height="2.6" width="2.6" x="31.0" y="63.0" /><rect fill="#444444" height="2.6" width="2.6" x="31.0" y="66.5" /><rect fill="#444444" height="2.6" width="2.6" x="34.5" y="45.5" /><rect fill="#444444" height="2.6" width="2.6" x="34.5" y="49.0" /><rect fill="#444444" height="2.6" width="2.6" x="34.5" y="52.5" /><rect fill="#444444" height="2.6" width="2.6" x="34.5" y="56.0" /><rect fill="#444444" height="2.6" width="2.6" x="34.5" y="59.5" /><rect fill="#444444" height="2.6" width="2.6" x="34.5" y="63.0" /><rect fill="#444444" height="2.6" width="2.6" x="34.5" y="66.5" /><rect fill="#444444" height="2.6" width="2.6" x="38.0" y="45.5" /><rect fill="#444444" height="2.6" width="2.6" x="38.0" y="49.0" /><rect fill="#444444" height="2.6" width="2.6" x="38.0" y="52.5" /><rect fill="#444444" height="2.6" width="2.6" x="38.0" y="56.0" /><rect fill="#444444" height="2.6" width="2.6" x="38.0" y="59.5" /><rect fill="#444444" height="2.6" width="2.6" x="38.0" y="63.0" /><rect fill="#444444" height="2.6" width="2.6" x="38.0" y="66.5" /><rect fill="#444444" height="2.6" width="2.6" x="41.5" y="45.5" /><rect fill="#444444" height="2.6" width="2.6" x="41.5" y="49.0" /><rect fill="#444444" height="2.6" width="2.6" x="41.5" y="52.5" /><rect fill="#444444" height="2.6" width="2.6" x="41.5" y="56.0" /><rect fill="#444444" height="2.6" width="2.6" x="41.5" y="59.5" /><rect fill="#444444" height="2.6" width="2.6" x="41.5" y="63.0" /><rect fill="#444444" height="2.6" width="2.6" x="41.5" y="66.5" /><rect fill="#444444" height="2.6" width="2.6" x="45.0" y="45.5" /><rect fill="#444444" height="2.6" width="2.6" x="45.0" y="49.0" /><rect fill="#444444" height="2.6" width="2.6" x="45.0" y="52.5" /><rect fill="#444444" height="2.6" width="2.6" x="45.0" y="56.0" /><rect fill="#444444" height="2.6" width="2.6" x="45.0" y="59.5" /><rect fill="#444444" height="2.6" width="2.6" x="45.0" y="63.0" /><rect fill="#444444" height="2.6" width="2.6" x="45.0" y="66.5" /><rect fill="#444444" height="2.6" width="2.6" x="48.5" y="45.5" /><rect fill="#444444" height="2.6" width="2.6" x="48.5" y="49.0" /><rect fill="#444444" height="2.6" width="2.6" x="48.5" y="52.5" /><rect fill="#444444" height="2.6" width="2.6" x="48.5" y="56.0" /><rect fill="#444444" height="2.6" width="2.6" x="48.5" y="59.5" /><rect fill="#444444" height="2.6" width="2.6" x="48.5" y="63.0" /><rect fill="#444444" height="2.6" width="2.6" x="48.5" y="66.5" /><rect fill="#444444" height="2.6" width="2.6" x="52.0" y="45.5" /><rect fill="#444444" height="2.6" width="2.6" x="52.0" y="49.0" /><rect fill="#444444" height="2.6" width="2.6" x="52.0" y="52.5" /><rect fill="#444444" height="2.6" width="2.6" x="52.0" y="56.0" /><rect fill="#444444" height="2.6" width="2.6" x="52.0" y="59.5" /><rect fill="#444444" height="2.6" width="2.6" x="52.0" y="63.0" /><rect fill="#444444" height="2.6" width="2.6" x="52.0" y="66.5" /><rect fill="#444444" height="2.6" width="2.6" x="55.5" y="45.5" /><rect fill="#444444" height="2.6" width="2.6" x="55.5" y="49.0" /><rect fill="#444444" height="2.6" width="2.6" x="55.5" y="52.5" /><rect fill="#444444" height="2.6" width="2.6" x="55.5" y="56.0" /><rect fill="#444444" height="2.6" width="2.6" x="55.5" y="59.5" /><rect fill="#444444" height="2.6" width="2.6" x="55.5" y="63.0" /><rect fill="#444444" height="2.6" width="2.6" x="55.5" y="66.5" /><rect fill="#444444" height="2.6" width="2.6" x="59.0" y="45.5" /><rect fill="#444444" height="2.6" width="2.6" x="59.0" y="49.0" /><rect fill="#444444" height="2.6" width="2.6" x="59.0" y="52.5" /><rect fill="#444444" height="2.6" width="2.6" x="59.0" y="56.0" /><rect fill="#444444" height="2.6" width="2.6" x="59.0" y="59.5" /><rect fill="#444444" height="2.6" width="2.6" x="59.0" y="63.0" /><rect fill="#444444" height="2.6" width="2.6" x="59.0" y="66.5" /><rect fill="#444444" height="2.6" width="2.6" x="62.5" y="45.5" /><rect fill="#444444" height="2.6" width="2.6" x="62.5" y="49.0" /><rect fill="#444444" height="2.6" width="2.6" x="62.5" y="52.5" /><rect fill="#444444" height="2.6" width="2.6" x="62.5" y="56.0" /><rect fill="#444444" height="2.6" width="2.6" x="62.5" y="59.5" /><rect fill="#444444" height="2.6" width="2.6" x="62.5" y="63.0" /><rect fill="#444444" height="2.6" width="2.6" x="62.5" y="66.5" /><rect fill="#444444" height="2.6" width="2.6" x="66.0" y="45.5" /><rect fill="#444444" height="2.6" width="2.6" x="66.0" y="49.0" /><rect fill="#444444" height="2.6" width="2.6" x="66.0" y="52.5" /><rect fill="#444444" height="2.6" width="2.6" x="66.0" y="56.0" /><rect fill="#444444" height="2.6" width="2.6" x="66.0" y="59.5" /><rect fill="#444444" height="2.6" width="2.6" x="66.0" y="63.0" /><rect fill="#444444" height="2.6" width="2.6" x="66.0" y="66.5" /><rect fill="#444444" height="2.6" width="2.6" x="69.5" y="45.5" /><rect fill="#444444" height="2.6" width="2.6" x="69.5" y="49.0" /><rect fill="#444444" height="2.6" width="2.6" x="69.5" y="52.5" /><rect fill="#444444" height="2.6" width="2.6" x="69.5" y="56.0" /><rect fill="#444444" height="2.6" width="2.6" x="69.5" y="59.5" /><rect fill="#444444" height="2.6" width="2.6" x="69.5" y="63.0" /><rect fill="#444444" height="2.6" width="2.6" x="69.5" y="66.5" /><rect fill="#444444" height="2.6" width="2.6" x="73.0" y="45.5" /><rect fill="#444444" height="2.6" width="2.6" x="73.0" y="49.0" /><rect fill="#444444" height="2.6" width="2.6" x="73.0" y="52.5" /><rect fill="#444444" height="2.6" width="2.6" x="73.0" y="56.0" /><rect fill="#444444" height="2.6" width="2.6" x="73.0" y="59.5" /><rect fill="#444444" height="2.6" width="2.6" x="73.0" y="63.0" /><rect fill="#444444" height="2.6" width="2.6" x="73.0" y="66.5" /><rect fill="#444444" height="2.6" width="2.6" x="76.5" y="45.5" /><rect fill="#444444" height="2.6" width="2.6" x="76.5" y="49.0" /><rect fill="#444444" height="2.6" width="2.6" x="76.5" y="52.5" /><rect fill="#444444" height="2.6" width="2.6" x="76.5" y="56.0" /><rect fill="#444444" height="2.6" width="2.6" x="76.5" y="59.5" /><rect fill="#444444" height="2.6" width="2.6" x="76.5" y="63.0" /><rect fill="#444444" height="2.6" width="2.6" x="76.5" y="66.5" /><rect fill="#444444" height="2.6" width="2.6" x="80.0" y="45.5" /><rect fill="#444444" height="2.6" width="2.6" x="80.0" y="49.0" /><rect fill="#444444" height="2.6" width="2.6" x="80.0" y="52.5" /><rect fill="#444444" height="2.6" width="2.6" x="80.0" y="56.0" /><rect fill="#444444" height="2.6" width="2.6" x="80.0" y="59.5" /><rect fill="#444444" height="2.6" width="2.6" x="80.0" y="63.0" /><rect fill="#444444" height="2.6" width="2.6" x="80.0" y="66.5" /><rect fill="#444444" height="2.6" width="2.6" x="83.5" y="45.5" /><rect fill="#444444" height="2.6" width="2.6" x="83.5" y="49.0" /><rect fill="#444444" height="2.6" width="2.6" x="83.5" y="52.5" /><rect fill="#444444" height="2.6" width="2.6" x="83.5" y="56.0" /><rect fill="#444444" height="2.6" width="2.6" x="83.5" y="59.5" /><rect fill="#444444" height="2.6" width="2.6" x="83.5" y="63.0" /><rect fill="#444444" height="2.6" width="2.6" x="83.5" y="66.5" /><rect fill="#444444" height="2.6" width="2.6" x="87.0" y="45.5" /><rect fill="#444444" height="2.6" width="2.6" x="87.0" y="49.0" /><rect fill="#444444" height="2.6" width="2.6" x="87.0" y="52.5" /><rect fill="#444444" height="2.6" width="2.6" x="87.0" y="56.0" /><rect fill="#444444" height="2.6" width="2.6" x="87.0" y="59.5" /><rect fill="#444444" height="2.6" width="2.6" x="87.0" y="63.0" /><rect fill="#444444" height="2.6" width="2.6" x="87.0" y="66.5" /><rect fill="#444444" height="2.6" width="2.6" x="90.5" y="45.5" /><rect fill="#444444" height="2.6" width="2.6" x="90.5" y="49.0" /><rect fill="#444444" height="2.6" width="2.6" x="90.5" y="52.5" /><rect fill="#444444" height="2.6" width="2.6" x="90.5" y="56.0" /><rect fill="#444444" height="2.6" width="2.6" x="90.5" y="59.5" /><rect fill="#444444" height="2.6" width="2.6" x="90.5" y="63.0" /><rect fill="#444444" height="2.6" width="2.6" x="90.5" y="66.5" /><rect fill="#444444" height="2.6" width="2.6" x="94.0" y="45.5" /><rect fill="#444444" height="2.6" width="2.6" x="94.0" y="49.0" /><rect fill="#444444" height="2.6" width="2.6" x="94.0" y="52.5" /><rect fill="#444444" height="2.6" width="2.6" x="94.0" y="56.0" /><rect fill="#444444" height="2.6" width="2.6" x="94.0" y="59.5" /><rect fill="#444444" height="2.6" width="2.6" x="94.0" y="63.0" /><rect fill="#444444" height="2.6" width="2.6" x="94.0" y="66.5" /><rect fill="#444444" height="2.6" width="2.6" x="97.5" y="45.5" /><rect fill="#444444" height="2.6" width="2.6" x="97.5" y="49.0" /><rect fill="#444444" height="2.6" width="2.6" x="97.5" y="52.5" /><rect fill="#444444" height="2.6" width="2.6" x="97.5" y="56.0" /><rect fill="#444444" height="2.6" width="2.6" x="97.5" y="59.5" /><rect fill="#444444" height="2.6" width="2.6" x="97.5" y="63.0" /><rect fill="#444444" height="2.6" width="2.6" x="97.5" y="66.5" /><rect fill="#444444" height="2.6" width="2.6" x="101.0" y="45.5" /><rect fill="#444444" height="2.6" width="2.6" x="101.0" y="49.0" /><rect fill="#444444" height="2.6" width="2.6" x="101.0" y="52.5" /><rect fill="#444444" height="2.6" width="2.6" x="101.0" y="56.0" /><rect fill="#444444" height="2.6" width="2.6" x="101.0" y="59.5" /><rect fill="#444444" height="2.6" width="2.6" x="101.0" y="63.0" /><rect fill="#444444" height="2.6" width="2.6" x="101.0" y="66.5" /><rect fill="#444444" height="2.6" width="2.6" x="104.5" y="45.5" /><rect fill="#444444" height="2.6" width="2.6" x="104.5" y="49.0" /><rect fill="#444444" height="2.6" width="2.6" x="104.5" y="52.5" /><rect fill="#444444" height="2.6" width="2.6" x="104.5" y="56.0" /><rect fill="#444444" height="2.6" width="2.6" x="104.5" y="59.5" /><rect fill="#444444" height="2.6" width="2.6" x="104.5" y="63.0" /><rect fill="#444444" height="2.6" width="2.6" x="104.5" y="66.5" /><rect fill="#444444" height="2.6" width="2.6" x="108.0" y="45.5" /><rect fill="#444444" height="2.6" width="2.6" x="108.0" y="49.0" /><rect fill="#444444" height="2.6" width="2.6" x="108.0" y="52.5" /><rect fill="#444444" height="2.6" width="2.6" x="108.0" y="56.0" /><rect fill="#444444" height="2.6" width="2.6" x="108.0" y="59.5" /><rect fill="#444444" height="2.6" width="2.6" x="108.0" y="63.0" /><rect fill="#444444" height="2.6" width="2.6" x="108.0" y="66.5" /><rect fill="#444444" height="2.6" width="2.6" x="111.5" y="45.5" /><rect fill="#444444" height="2.6" width="2.6" x="111.5" y="49.0" /><rect fill="#444444" height="2.6" width="2.6" x="111.5" y="52.5" /><rect fill="#444444" height="2.6" width="2.6" x="111.5" y="56.0" /><rect fill="#444444" height="2.6" width="2.6" x="111.5" y="59.5" /><rect fill="#444444" height="2.6" width="2.6" x="111.5" y="63.0" /><rect fill="#444444" height="2.6" width="2.6" x="111.5" y="66.5" /><rect fill="#444444" height="2.6" width="2.6" x="115.0" y="45.5" /><rect fill="#444444" height="2.6" width="2.6" x="115.0" y="49.0" /><rect fill="#444444" height="2.6" width="2.6" x="115.0" y="52.5" /><rect fill="#444444" height="2.6" width="2.6" x="115.0" y="56.0" /><rect fill="#444444" height="2.6" width="2.6" x="115.0" y="59.5" /><rect fill="#444444" height="2.6" width="2.6" x="115.0" y="63.0" /><rect fill="#444444" height="2.6" width="2.6" x="115.0" y="66.5" /><rect fill="#444444" height="2.6" width="2.6" x="118.5" y="45.5" /><rect fill="#444444" height="2.6" width="2.6" x="118.5" y="49.0" /><rect fill="#444444" height="2.6" width="2.6" x="118.5" y="52.5" /><rect fill="#444444" height="2.6" width="2.6" x="118.5" y="56.0" /><rect fill="#444444" height="2.6" width="2.6" x="118.5" y="59.5" /><rect fill="#444444" height="2.6" width="2.6" x="118.5" y="63.0" /><rect fill="#444444" height="2.6" width="2.6" x="118.5" y="66.5" /><rect fill="#444444" height="2.6" width="2.6" x="122.0" y="45.5" /><rect fill="#444444" height="2.6" width="2.6" x="122.0" y="49.0" /><rect fill="#444444" height="2.6" width="2.6" x="122.0" y="52.5" /><rect fill="#444444" height="2.6" width="2.6" x="122.0" y="56.0" /><rect fill="#444444" height="2.6" width="2.6" x="122.0" y="59.5" /><rect fill="#444444" height="2.6" width="2.6" x="122.0" y="63.0" /><rect fill="#444444" height="2.6" width="2.6" x="122.0" y="66.5" /><rect fill="#444444" height="2.6" width="2.6" x="125.5" y="45.5" /><rect fill="#444444" height="2.6" width="2.6" x="125.5" y="49.0" /><rect fill="#444444" height="2.6" width="2.6" x="125.5" y="52.5" /><rect fill="#444444" height="2.6" width="2.6" x="125.5" y="56.0" /><rect fill="#444444" height="2.6" width="2.6" x="125.5" y="59.5" /><rect fill="#444444" height="2.6" width="2.6" x="125.5" y="63.0" /><rect fill="#444444" height="2.6" width="2.6" x="125.5" y="66.5" /><rect fill="#444444" height="2.6" width="2.6" x="129.0" y="45.5" /><rect fill="#444444" height="2.6" width="2.6" x="129.0" y="49.0" /><rect fill="#444444" height="2.6" width="2.6" x="129.0" y="52.5" /><rect fill="#444444" height="2.6" width="2.6" x="129.0" y="56.0" /><rect fill="#444444" height="2.6" width="2.6" x="129.0" y="59.5" /><rect fill="#444444" height="2.6" width="2.6" x="129.0" y="63.0" /><rect fill="#444444" height="2.6" width="2.6" x="129.0" y="66.5" /><rect fill="#444444" height="2.6" width="2.6" x="132.5" y="45.5" /><rect fill="#444444" height="2.6" width="2.6" x="132.5" y="49.0" /><rect fill="#444444" height="2.6" width="2.6" x="132.5" y="52.5" /><rect fill="#444444" height="2.6" width="2.6" x="132.5" y="56.0" /><rect fill="#444444" height="2.6" width="2.6" x="132.5" y="59.5" /><rect fill="#444444" height="2.6" width="2.6" x="132.5" y="63.0" /><rect fill="#444444" height="2.6" width="2.6" x="132.5" y="66.5" /><rect fill="#444444" height="2.6" width="2.6" x="136.0" y="45.5" /><rect fill="#444444" height="2.6" width="2.6" x="136.0" y="49.0" /><rect fill="#444444" height="2.6" width="2.6" x="136.0" y="52.5" /><rect fill="#444444" height="2.6" width="2.6" x="136.0" y="56.0" /><rect fill="#444444" height="2.6" width="2.6" x="136.0" y="59.5" /><rect fill="#444444" height="2.6" width="2.6" x="136.0" y="63.0" /><rect fill="#444444" height="2.6" width="2.6" x="136.0" y="66.5" /><rect fill="#444444" height="2.6" width="2.6" x="139.5" y="45.5" /><rect fill="#444444" height="2.6" width="2.6" x="139.5" y="49.0" /><rect fill="#444444" height="2.6" width="2.6" x="139.5" y="52.5" /><rect fill="#444444" height="2.6" width="2.6" x="139.5" y="56.0" /><rect fill="#444444" height="2.6" width="2.6" x="139.5" y="59.5" /><rect fill="#444444" height="2.6" width="2.6" x="139.5" y="63.0" /><rect fill="#444444" height="2.6" width="2.6" x="139.5" y="66.5" /><rect fill="#444444" height="2.6" width="2.6" x="143.0" y="45.5" /><rect fill="#444444" height="2.6" width="2.6" x="143.0" y="49.0" /><rect fill="#444444" height="2.6" width="2.6" x="143.0" y="52.5" /><rect fill="#444444" height="2.6" width="2.6" x="143.0" y="56.0" /><rect fill="#444444" height="2.6" width="2.6" x="143.0" y="59.5" /><rect fill="#444444" height="2.6" width="2.6" x="143.0" y="63.0" /><rect fill="#444444" height="2.6" width="2.6" x="143.0" y="66.5" /><rect fill="#444444" height="2.6" width="2.6" x="146.5" y="45.5" /><rect fill="#444444" height="2.6" width="2.6" x="146.5" y="49.0" /><rect fill="#444444" height="2.6" width="2.6" x="146.5" y="52.5" /><rect fill="#444444" height="2.6" width="2.6" x="146.5" y="56.0" /><rect fill="#444444" height="2.6" width="2.6" x="146.5" y="59.5" /><rect fill="#444444" height="2.6" width="2.6" x="146.5" y="63.0" /><rect fill="#444444" height="2.6" width="2.6" x="146.5" y="66.5" /><rect fill="#444444" height="2.6" width="2.6" x="150.0" y="45.5" /><rect fill="#444444" height="2.6" width="2.6" x="150.0" y="49.0" /><rect fill="#444444" height="2.6" width="2.6" x="150.0" y="52.5" /><rect fill="#444444" height="2.6" width="2.6" x="150.0" y="56.0" /><rect fill="#444444" height="2.6" width="2.6" x="150.0" y="59.5" /><rect fill="#444444" height="2.6" width="2.6" x="150.0" y="63.0" /><rect fill="#444444" height="2.6" width="2.6" x="150.0" y="66.5" /><rect fill="#444444" height="2.6" width="2.6" x="153.5" y="45.5" /><rect fill="#444444" height="2.6" width="2.6" x="153.5" y="49.0" /><rect fill="#444444" height="2.6" width="2.6" x="153.5" y="52.5" /><rect fill="#444444" height="2.6" width="2.6" x="153.5" y="56.0" /><rect fill="#444444" height="2.6" width="2.6" x="153.5" y="59.5" /><rect fill="#444444" height="2.6" width="2.6" x="153.5" y="63.0" /><rect fill="#444444" height="2.6" width="2.6" x="153.5" y="66.5" /><rect fill="#444444" height="2.6" width="2.6" x="157.0" y="45.5" /><rect fill="#444444" height="2.6" width="2.6" x="157.0" y="49.0" /><rect fill="#444444" height="2.6" width="2.6" x="157.0" y="52.5" /><rect fill="#444444" height="2.6" width="2.6" x="157.0" y="56.0" /><rect fill="#444444" height="2.6" width="2.6" x="157.0" y="59.5" /><rect fill="#444444" height="2.6" width="2.6" x="157.0" y="63.0" /><rect fill="#444444" height="2.6" width="2.6" x="157.0" y="66.5" /><rect fill="#444444" height="2.6" width="2.6" x="160.5" y="45.5" /><rect fill="#444444" height="2.6" width="2.6" x="160.5" y="49.0" /><rect fill="#444444" height="2.6" width="2.6" x="160.5" y="52.5" /><rect fill="#444444" height="2.6" width="2.6" x="160.5" y="56.0" /><rect fill="#444444" height="2.6" width="2.6" x="160.5" y="59.5" /><rect fill="#444444" height="2.6" width="2.6" x="160.5" y="63.0" /><rect fill="#444444" height="2.6" width="2.6" x="160.5" y="66.5" /><rect fill="#444444" height="2.6" width="2.6" x="164.0" y="45.5" /><rect fill="#444444" height="2.6" width="2.6" x="164.0" y="49.0" /><rect fill="#444444" height="2.6" width="2.6" x="164.0" y="52.5" /><rect fill="#444444" height="2.6" width="2.6" x="164.0" y="56.0" /><rect fill="#444444" height="2.6" width="2.6" x="164.0" y="59.5" /><rect fill="#444444" height="2.6" width="2.6" x="164.0" y="63.0" /><rect fill="#444444" height="2.6" width="2.6" x="164.0" y="66.5" /><rect fill="#444444" height="2.6" width="2.6" x="167.5" y="45.5" /><rect fill="#444444" height="2.6" width="2.6" x="167.5" y="49.0" /><rect fill="#444444" height="2.6" width="2.6" x="167.5" y="52.5" /><rect fill="#444444" height="2.6" width="2.6" x="167.5" y="56.0" /><rect fill="#444444" height="2.6" width="2.6" x="167.5" y="59.5" /><rect fill="#444444" height="2.6" width="2.6" x="167.5" y="63.0" /><rect fill="#444444" height="2.6" width="2.6" x="167.5" y="66.5" /><rect fill="#444444" height="2.6" width="2.6" x="171.0" y="45.5" /><rect fill="#444444" height="2.6" width="2.6" x="171.0" y="49.0" /><rect fill="#444444" height="2.6" width="2.6" x="171.0" y="52.5" /><rect fill="#444444" height="2.6" width="2.6" x="171.0" y="56.0" /><rect fill="#444444" height="2.6" width="2.6" x="171.0" y="59.5" /><rect fill="#444444" height="2.6" width="2.6" x="171.0" y="63.0" /><rect fill="#444444" height="2.6" width="2.6" x="171.0" y="66.5" /><rect fill="#444444" height="2.6" width="2.6" x="174.5" y="45.5" /><rect fill="#444444" height="2.6" width="2.6" x="174.5" y="49.0" /><rect fill="#444444" height="2.6" width="2.6" x="174.5" y="52.5" /><rect fill="#444444" height="2.6" width="2.6" x="174.5" y="56.0" /><rect fill="#444444" height="2.6" width="2.6" x="174.5" y="59.5" /><rect fill="#444444" height="2.6" width="2.6" x="174.5" y="63.0" /><rect fill="#444444" height="2.6" width="2.6" x="174.5" y="66.5" /><rect fill="#444444" height="2.6" width="2.6" x="178.0" y="45.5" /><rect fill="#444444" height="2.6" width="2.6" x="178.0" y="49.0" /><rect fill="#444444" height="2.6" width="2.6" x="178.0" y="52.5" /><rect fill="#444444" height="2.6" width="2.6" x="178.0" y="56.0" /><rect fill="#444444" height="2.6" width="2.6" x="178.0" y="59.5" /><rect fill="#444444" height="2.6" width="2.6" x="178.0" y="63.0" /><rect fill="#444444" height="2.6" width="2.6" x="178.0" y="66.5" /><rect fill="#444444" height="2.6" width="2.6" x="181.5" y="45.5" /><rect fill="#444444" height="2.6" width="2.6" x="181.5" y="49.0" /><rect fill="#444444" height="2.6" width="2.6" x="181.5" y="52.5" /><rect fill="#444444" height="2.6" width="2.6" x="181.5" y="56.0" /><rect fill="#444444" height="2.6" width="2.6" x="181.5" y="59.5" /><rect fill="#444444" height="2.6" width="2.6" x="181.5" y="63.0" /><rect fill="#444444" height="2.6" width="2.6" x="181.5" y="66.5" /><rect fill="#444444" height="2.6" width="2.6" x="185.0" y="45.5" /><rect fill="#444444" height="2.6" width="2.6" x="185.0" y="49.0" /><rect fill="#444444" height="2.6" width="2.6" x="185.0" y="52.5" /><rect fill="#444444" height="2.6" width="2.6" x="185.0" y="56.0" /><rect fill="#444444" height="2.6" width="2.6" x="185.0" y="59.5" /><rect fill="#444444" height="2.6" width="2.6" x="185.0" y="63.0" /><rect fill="#444444" height="2.6" width="2.6" x="185.0" y="66.5" /><rect fill="#444444" height="2.6" width="2.6" x="188.5" y="45.5" /><rect fill="#444444" height="2.6" width="2.6" x="188.5" y="49.0" /><rect fill="#444444" height="2.6" width="2.6" x="188.5" y="52.5" /><rect fill="#444444" height="2.6" width="2.6" x="188.5" y="56.0" /><rect fill="#444444" height="2.6" width="2.6" x="188.5" y="59.5" /><rect fill="#444444" height="2.6" width="2.6" x="188.5" y="63.0" /><rect fill="#444444" height="2.6" width="2.6" x="188.5" y="66.5" /><rect fill="#444444" height="2.6" width="2.6" x="192.0" y="45.5" /><rect fill="#444444" height="2.6" width="2.6" x="192.0" y="49.0" /><rect fill="#444444" height="2.6" width="2.6" x="192.0" y="52.5" /><rect fill="#444444" height="2.6" width="2.6" x="192.0" y="56.0" /><rect fill="#444444" height="2.6" width="2.6" x="192.0" y="59.5" /><rect fill="#444444" height="2.6" width="2.6" x="192.0" y="63.0" /><rect fill="#444444" height="2.6" width="2.6" x="192.0" y="66.5" /><rect fill="#CAE3F7" height="2.6" width="2.6" x="10" y="73.0" /><text fill="#FFFFFF" style="font-size:4px; font-family:Arial" x="13" y="75.5">: github</text><rect fill="#C9E8AF" height="2.6" width="2.6" x="30" y="73.0" /><text fill="#FFFFFF" style="font-size:4px; font-family:Arial" x="33" y="75.5">: dota2</text></svg>